<?xml version="1.0" encoding="utf-8"?>
<!-- Generator: Adobe Illustrator 26.5.0, SVG Export Plug-In . SVG Version: 6.00 Build 0)  -->
<svg version="1.1" id="Layer_1" xmlns="http://www.w3.org/2000/svg" xmlns:xlink="http://www.w3.org/1999/xlink" x="0px" y="0px"
	 viewBox="0 0 100 100" style="enable-background:new 0 0 100 100;" xml:space="preserve">
<style type="text/css">
	.st0{fill:#5C64B1;}
	.st1{fill:#A3E8E5;}
	.st2{font-family:'AdageScriptJF';}
	.st3{font-size:65.4928px;}
	.st4{letter-spacing:2.43;}
	.st5{font-size:61.3828px;}
	.st6{letter-spacing:3.37;}
</style>
<circle class="st0" cx="50" cy="50" r="50"/>
<text transform="matrix(0.8221 0 0 1 39.3876 82.377)"><tspan x="0" y="0" class="st1 st2 st3">L</tspan><tspan x="43.22" y="0" class="st1 st2 st3 st4">i</tspan></text>
<text transform="matrix(0.8903 0 0 1 6.9907 56.4014)" class="st1 st2 st5 st6">K</text>
<g>
	<g>
		<path class="st1" d="M51.55,44.74c0.11-0.07,0.21-0.14,0.32-0.21c0.39-0.25-0.51,0.28-0.12,0.07c0.19-0.1,0.37-0.21,0.57-0.31
			c0.24-0.12,0.78-0.25-0.1,0.03c0.08-0.03,0.16-0.06,0.24-0.09c0.27-0.1,0.54-0.04-0.27,0.06c0.11-0.01,0.24-0.04,0.34-0.07
			c-0.58,0.2-0.61,0.07-0.35,0.06c0.29-0.02-0.01,0.11-0.31-0.01c0.03,0.01,0.23,0.04,0.26,0.03c-0.18,0.05-0.51-0.13-0.26-0.05
			c0.04,0.01,0.14,0.08,0.17,0.08c-0.3,0.06-0.3-0.25-0.11-0.04c0.02,0.03,0.2,0.17,0.18,0.2c-0.06,0.15-0.18-0.38-0.09-0.12
			c0.01,0.03,0.03,0.06,0.05,0.09c0.04,0.11,0.09,0.22,0.13,0.34c0.03,0.09,0.05,0.18,0.06,0.27c0.02,0.12,0.03,0.54,0.02,0.08
			c0,0.27,0.01,0.54-0.01,0.81c-0.05,0.61-0.17,1.21-0.32,1.81c-0.08,0.32-0.17,0.63-0.27,0.94c-0.06,0.17-0.12,0.35-0.18,0.52
			c-0.04,0.11-0.28,0.68-0.09,0.25c-0.57,1.33-1.17,2.63-1.98,3.84c-0.09,0.14-0.19,0.28-0.29,0.41c-0.05,0.07-0.1,0.13-0.15,0.19
			c-0.18,0.24,0.33-0.39,0.04-0.06c-0.21,0.24-0.41,0.47-0.63,0.69c-0.03,0.03-0.07,0.06-0.1,0.09c-0.3,0.3,0.42-0.32,0.17-0.14
			c-0.1,0.07-0.21,0.15-0.31,0.22c-0.19,0.15,0.62-0.36,0.36-0.22c-0.22,0.12-0.52,0.18,0.38-0.15c-0.48,0.18,0.77-0.17,0.28-0.08
			c-0.87,0.16-2.47,0.81-2.61,1.84c-0.15,1.09,1.56,0.94,2.15,0.83c3.56-0.64,5.73-4.31,6.99-7.37c0.61-1.47,1.17-3.03,1.29-4.63
			c0.1-1.28-0.08-2.63-1.34-3.24c-0.9-0.44-2.1-0.31-3.04-0.08c-1.52,0.39-2.89,1.12-4.19,1.98c-0.61,0.41-1.33,1.52-0.28,1.88
			C49.29,45.86,50.62,45.35,51.55,44.74L51.55,44.74z"/>
	</g>
</g>
</svg>
